<?xml version="1.0" encoding="iso-8859-1"?>
<!-- Generator: Adobe Illustrator 16.0.0, SVG Export Plug-In . SVG Version: 6.00 Build 0)  -->
<!DOCTYPE svg PUBLIC "-//W3C//DTD SVG 1.1//EN" "http://www.w3.org/Graphics/SVG/1.1/DTD/svg11.dtd">
<svg version="1.1" id="Capa_1" xmlns="http://www.w3.org/2000/svg" xmlns:xlink="http://www.w3.org/1999/xlink" x="0px" y="0px"
	 width="612.057px" height="612.057px" viewBox="0 0 612.057 612.057" style="enable-background:new 0 0 612.057 612.057;"
	 xml:space="preserve">
<g>
	<g>
		<path d="M412.585,233.896c2.187,12.403,12.91,21.406,25.49,21.406c1.482,0,2.98-0.129,4.467-0.387l77.481-13.611
			c6.812-1.192,12.754-4.967,16.718-10.63c3.963-5.651,5.49-12.512,4.298-19.319L515.887,68.072
			c-2.167-12.407-12.87-21.414-25.454-21.414c-1.498,0-3.009,0.133-4.491,0.395l-77.47,13.607
			c-6.815,1.181-12.757,4.955-16.733,10.618c-3.963,5.652-5.494,12.508-4.31,19.328L412.585,233.896z M404.936,80.531
			c1.494-2.131,3.729-3.549,6.312-4l77.486-13.611c0.563-0.097,1.14-0.149,1.704-0.149c4.736,0,8.765,3.396,9.582,8.077
			l25.152,143.286c0.451,2.566-0.125,5.156-1.619,7.291c-1.494,2.135-3.734,3.557-6.309,4.008l-77.47,13.611
			c-5.409,0.935-10.396-2.703-11.318-7.936L403.308,87.842C402.856,85.26,403.437,82.666,404.936,80.531z"/>
		<path d="M215.836,527.465h127.653c14.268,0,27.126-12.08,27.126-26.353v-371.84l64.918,373.121
			c2.167,12.411,12.556,21.043,25.14,21.043c0,0-0.157,0-0.153,0c1.503,0,2.945,0.238,4.427-0.023L590.67,501.54
			c14.014-2.498,23.412-15.839,20.975-29.877l-79.049-450.29C530.408,8.975,519.697,0,507.122,0c-1.495,0-3.01,0.141-4.492,0.403
			L376.879,22.478c-4.745,0.833-9.067,3.871-12.592,6.977c-4.722-6.36-12.282-9.539-20.794-9.539H215.841
			c-14.272,0-26.489,9.712-26.489,23.979v457.213C189.352,515.385,201.569,527.465,215.836,527.465z M373.37,42.356
			c1.49-2.131,3.727-3.553,6.288-4.004l125.756-22.066c0.571-0.101,1.144-0.149,1.703-0.149c4.737,0,8.773,3.396,9.6,8.073
			l79.033,450.317c0.922,5.306-2.643,10.389-7.924,11.332l-125.747,22.058c-5.313,0.938-10.381-2.683-11.295-7.927L371.759,49.651
			C371.304,47.082,371.876,44.491,373.37,42.356z M205.464,43.895c0-5.386,4.987-7.871,10.373-7.871h127.653
			c5.39,0.004,11.018,2.485,11.018,7.871v457.213c0,5.39-5.628,10.24-11.014,10.24H215.841c-5.386,0-10.373-4.851-10.373-10.24
			V43.895H205.464z"/>
		<path d="M593.144,535.521H19.556c-7.287,0-11.473,4.262-11.473,11.549v51.553c0,7.271,4.186,13.434,11.473,13.434h573.587
			c7.278,0,15.138-6.163,15.138-13.434v-51.557C608.281,539.783,600.418,535.521,593.144,535.521z M592.169,595.944H24.196v-44.311
			h567.973V595.944z"/>
		<path d="M240.336,257.578h78.654c14.268,0,27.456-10.88,27.456-25.148V86.952c0-14.276-13.188-26.755-27.456-26.755h-78.654
			c-14.268,0-26.815,12.479-26.815,26.755V232.43C213.521,246.697,226.068,257.578,240.336,257.578z M229.633,86.952
			c0-5.394,5.317-10.643,10.703-10.643h78.654c5.386,0,11.343,5.249,11.343,10.643V232.43c0,5.386-5.957,9.035-11.343,9.035h-78.654
			c-5.386,0-10.703-3.649-10.703-9.035V86.952z"/>
		<path d="M26.19,527.465h127.657c14.264,0,27.444-12.08,27.444-26.353V43.895c0-14.268-13.184-23.984-27.444-23.984H26.19
			c-14.26,0.004-26.163,9.716-26.163,23.984v457.213C0.027,515.385,11.931,527.465,26.19,527.465z M16.14,43.895
			c0-5.386,4.672-7.867,10.05-7.867h127.657c5.377,0,11.335,2.481,11.335,7.867v457.213c0,5.39-5.958,10.24-11.331,10.24H26.19
			c-5.378,0.004-10.05-4.847-10.05-10.24V43.895z"/>
		<path d="M50.678,257.578h78.67c14.268,0,27.778-10.88,27.778-25.148V86.952c0-14.276-13.51-26.755-27.778-26.755h-78.67
			c-14.26,0-26.481,12.475-26.481,26.755V232.43C24.196,246.697,36.418,257.578,50.678,257.578z M40.309,86.952
			c0-5.394,4.991-10.643,10.369-10.643h78.67c5.382,0,11.666,5.249,11.666,10.643V232.43c0,5.386-6.28,9.035-11.666,9.035h-78.67
			c-5.378,0-10.369-3.649-10.369-9.035V86.952z"/>
	</g>
</g>
<g>
</g>
<g>
</g>
<g>
</g>
<g>
</g>
<g>
</g>
<g>
</g>
<g>
</g>
<g>
</g>
<g>
</g>
<g>
</g>
<g>
</g>
<g>
</g>
<g>
</g>
<g>
</g>
<g>
</g>
</svg>
